<svg viewBox="0 0 221 241" fill="none" xmlns="http://www.w3.org/2000/svg">
<path d="M136.99 202.17C132.33 205.19 127.86 206.61 123 206.18C121.05 206.01 119.13 205.34 117.26 204.71C116.67 204.51 115.85 203.6 115.93 203.15C116.04 202.49 116.75 201.62 117.4 201.4C119.68 200.63 122 199.95 124.36 199.51C128.68 198.72 133.03 198.13 137.8 197.38C138.01 195.68 138.29 193.49 138.62 190.88C128.18 195.08 117.58 196.59 106.7 196.23C95.77 195.87 85.23 193.82 75.24 188.68C75.09 189.75 74.96 190.69 74.83 191.63C74.67 191.65 74.51 191.68 74.34 191.7C73.79 188.62 73.18 185.55 72.69 182.46C70.81 170.69 66.59 160.13 58.19 151.29C50.4 143.1 43.87 133.87 39.75 123.27C30.54 99.53 36.18 78.34 52.68 60.14C76.05 34.35 115.93 29.13 145.46 47.6C160.52 57.02 169.54 71.3 174.59 88.08C178.55 101.25 179.32 114.58 173.54 127.41C171.15 132.73 167.48 137.5 164.16 142.36C162.34 145.03 160.13 147.46 157.93 149.85C149.52 158.98 145.95 169.93 145.06 182.12C144.53 189.4 143.66 196.73 142.1 203.85C140.03 213.29 135.15 221.09 126.22 225.79C125.64 226.1 125.24 227.01 125.03 227.72C123.08 234.46 118.47 238.5 111.86 240.05C105.39 241.57 99.72 239.63 95.58 234.41C94.11 232.55 93.3 230.03 92.68 227.68C92.34 226.42 92.03 225.69 90.82 225.15C76.65 218.87 74.12 205.4 74.48 194.16C74.49 193.95 74.7 193.74 75.11 193C76.76 206.74 80.64 218.53 95.16 223.04C105.44 226.24 115.42 226.3 125.03 220.75C122.95 220 120.93 219.45 119.1 218.52C118.39 218.16 117.8 216.97 117.75 216.13C117.72 215.73 119.06 214.94 119.84 214.85C124.76 214.27 129.06 212.09 133.31 209.78C136.12 208.28 135.83 205.25 136.99 202.17ZM87.18 136.49C83.82 136.74 80.51 137.29 77.23 137.17C67.94 136.84 62.13 130.15 63.09 121.23C63.92 113.48 70.61 106.7 77.87 106.24C85.08 105.78 91.23 110.85 92.96 118.82C93.41 120.88 93.52 123.02 93.81 125.35C94.48 125 95.02 124.8 95.47 124.48C99.59 121.53 103.71 118.57 107.81 115.59C112.8 111.95 118.25 110.16 124.47 111.22C137.26 113.4 141.42 126.54 135.53 134.59C135.11 135.17 134.91 135.93 134.68 136.64C133.53 140.28 132.55 143.98 131.25 147.57C129.64 152.02 127.55 156.31 126.07 160.8C123.07 169.91 123.18 179.26 124.37 188.82C129.19 188.55 133.83 188.28 138.7 188.01C138.84 186.24 138.86 184.49 139.14 182.79C140.18 176.32 140.85 169.74 142.51 163.42C144.63 155.35 150.26 149.2 155.3 142.76C159.09 137.92 163.07 133.11 166 127.75C171.25 118.16 171.71 107.68 169.62 97.11C166.27 80.26 158.54 65.75 144.59 55.48C120.63 37.85 80.76 38.91 56.99 64.68C41.46 81.51 35.52 104.62 47.12 127.48C51.33 135.79 56.61 143.34 62.62 150.4C69.45 158.42 72.99 167.74 74.23 178.06C74.56 180.84 74.83 183.62 75.11 186.29C80.75 186.9 86.1 187.47 91.61 188.06C91.51 170.65 90.46 153.49 87.18 136.49ZM128.82 121.01C126.26 118.29 123.04 117.6 119.52 117.98C115.6 118.39 112.72 120.83 109.66 123.03C105.07 126.31 100.42 129.55 95.53 132.35C93.23 133.67 92.61 134.96 92.93 137.43C94.84 152.51 95.65 167.62 94.14 182.8C93.96 184.6 93.83 186.4 93.63 188.74C103.42 188.74 112.93 188.74 122.49 188.74C122.46 188.42 122.47 188.17 122.41 187.94C118.97 174.93 119.83 162.23 125.07 149.81C126.28 146.96 127.11 143.95 128.26 140.62C123.03 142 119.17 140.72 116.57 136.51C114.34 132.91 114.44 129.17 116.73 125.66C119.58 121.29 123.77 120.09 128.82 121.01ZM88.2 124.8C87.34 122.08 86.8 119.19 85.53 116.67C84.05 113.73 81.36 112.22 77.87 112.74C72.71 113.51 68.55 119.94 69.94 124.98C70.61 127.42 72.09 129.37 74.57 129.66C77.64 130.03 80.85 130.08 83.9 129.65C87.68 129.11 87.64 128.83 88.2 124.8ZM119.41 228.4C111.9 230.23 104.82 229.9 97.52 227.92C102.74 234.94 112.68 235.19 119.41 228.4ZM121.33 131.08C121.33 132.87 122.85 134.66 124.43 134.72C126.24 134.79 129.52 132.23 129.57 130.73C129.65 128.37 128.11 126.85 125.69 126.89C123.32 126.91 121.33 128.83 121.33 131.08Z" fill="#16263C"/>
<path d="M184.81 70.44C184.09 70.15 182.79 69.92 182.74 69.54C182.65 68.8 183.06 67.77 183.61 67.21C184.71 66.1 185.98 65.11 187.3 64.26C193.16 60.52 199.43 57.68 206.2 56.02C207.48 55.71 208.83 55.56 210.15 55.51C210.75 55.49 211.81 55.82 211.87 56.15C211.99 56.75 211.54 57.47 211.3 58.13C211.25 58.27 211.09 58.39 210.97 58.5C203.41 64.89 194.55 68.41 184.81 70.44Z" fill="#16263C"/>
<path d="M169.55 16.93C169.34 17.46 169.11 18.26 168.73 19C165.28 25.69 160.25 30.9 153.69 34.55C152.61 35.15 151.08 34.96 149.76 35.13C150.03 33.89 150 32.45 150.64 31.44C154.52 25.22 159.58 20.09 165.58 15.89C166.19 15.47 166.88 15.11 167.58 14.89C169.13 14.41 169.78 15.1 169.55 16.93Z" fill="#16263C"/>
<path d="M206.58 113.8C210.1 114.23 213.98 114.6 217.82 115.23C218.71 115.38 219.47 116.37 220.28 116.97C219.57 117.71 218.99 118.8 218.12 119.14C210.89 121.98 203.68 121.82 196.66 118.4C195.87 118.01 195.38 117 194.76 116.28C195.6 115.71 196.38 114.78 197.28 114.64C200.22 114.22 203.21 114.08 206.58 113.8Z" fill="#16263C"/>
<path d="M11.89 167.34C11.67 167.23 10.64 167.03 10.52 166.58C10.34 165.92 10.55 164.81 11.03 164.35C13.78 161.72 16.48 158.98 19.54 156.76C22.06 154.93 25.0201 153.7 27.8701 152.37C28.4801 152.08 29.5801 152.28 30.1601 152.69C30.5001 152.93 30.46 154.07 30.25 154.68C28.43 159.88 17.8 167.39 11.89 167.34Z" fill="#16263C"/>
<path d="M108.94 11.56C108.4 14.85 107.89 18.53 107.12 22.17C106.94 23.02 105.85 23.68 105.17 24.42C104.5 23.75 103.52 23.19 103.22 22.38C100.71 15.7 100.93 9.04002 103.84 2.54002C104.21 1.72002 105.37 1.27001 106.16 0.640015C106.71 1.41001 107.58 2.12002 107.74 2.97002C108.27 5.65002 108.52 8.37002 108.94 11.56Z" fill="#16263C"/>
<path d="M14.44 109.17C10.83 108.29 6.62999 107.38 2.50999 106.17C1.51999 105.88 0.81999 104.57 -0.0100098 103.73C0.95999 103.08 1.84999 102.04 2.90999 101.83C9.01999 100.6 15 101.4 20.81 103.57C21.43 103.8 22.03 104.13 22.56 104.52C24.18 105.71 24.14 107.02 22.26 107.61C19.98 108.32 17.56 108.57 14.44 109.17Z" fill="#16263C"/>
<path d="M63.49 30.39C63.34 32.6 62.43 33.27 60.81 32.45C59.71 31.9 58.64 31.19 57.75 30.34C54.07 26.85 51.18 22.81 49.87 17.84C49.63 16.93 50.11 15.83 50.26 14.82C51.27 14.99 52.5 14.84 53.24 15.38C58.56 19.22 61.99 24.38 63.49 30.39Z" fill="#16263C"/>
<path d="M203.41 173.26C197.96 172.99 189.43 166.81 187.88 162.3C187.64 161.59 187.56 160.45 187.96 160C188.36 159.55 189.54 159.43 190.23 159.65C196.2 161.51 201.03 165.06 204.74 170.06C205.19 170.66 205.32 171.86 205.03 172.53C204.79 173.05 203.66 173.17 203.41 173.26Z" fill="#16263C"/>
<path d="M12.99 56.16C17.23 56.17 23.63 60.65 25.08 64.63C25.96 67.04 25 68.36 22.52 67.73C17.6 66.48 13.67 63.6 10.87 59.4C9.54997 57.44 10.53 56.15 12.99 56.16Z" fill="#16263C"/>
<path d="M159.62 104.49C158.95 103.11 158.21 101.76 157.62 100.35C153.68 90.87 148.52 82.22 140.89 75.19C131.86 66.88 121.05 62.28 109.21 59.75C107.75 59.44 106.31 59 104.88 58.58C104.61 58.5 104.42 58.19 103.73 57.57C105.71 57.08 107.25 56.51 108.83 56.34C133.17 53.68 159.48 75.97 160.82 100.37C160.89 101.65 160.67 102.94 160.59 104.22C160.26 104.31 159.94 104.4 159.62 104.49Z" fill="#16263C"/>
</svg>
