<svg viewBox="0 0 224 253" fill="none" xmlns="http://www.w3.org/2000/svg">
<path d="M179.34 212.64C188.59 216.28 196.17 216.59 203.2 213.6C212.91 209.48 218.92 201.54 221.59 189.33C225.17 172.94 222.84 156.78 214.66 141.3C208.41 129.47 199.52 121.55 188.23 117.78C185.71 116.94 183.08 116.4 180.3 115.84C178.99 115.58 177.68 115.31 176.35 115L175.37 114.78L175.21 113.79C175.17 113.57 175.13 113.33 175.09 113.08C174.98 112.45 174.85 111.74 174.77 111.02C172.2 89.1 168.7 71.16 163.76 54.58C159.56 40.5 154.24 25.74 143.83 13.19C136.02 3.76998 127.25 -0.480022 117.03 0.219978C108.55 0.799978 100.18 3.74998 92.16 8.98998C82.44 15.34 74.41 24.32 67.59 36.45C57.81 53.84 51.4 74.18 47.41 100.46C46.81 104.41 46.33 108.47 45.87 112.4C45.65 114.26 45.43 116.13 45.2 118.01L45.03 119.39L42.91 119.3C42.41 119.28 41.95 119.26 41.49 119.23C31.96 118.47 24.29 121.25 18.01 127.71C11.12 134.81 7.97001 143.85 5.99001 150.94C0.910006 169.15 0.470002 187.59 0.440002 206.45C0.440002 208.32 1.39 209.56 3.37 210.23C17.97 215.25 31 216.2 43.2 213.15C44.66 212.78 46.36 212.55 47.96 214.43C48.12 214.61 48.35 214.83 48.59 214.84C48.88 214.87 49.25 214.61 49.62 214.22C49.88 213.94 50.12 213.6 50.4 213.19C50.55 212.98 50.7 212.76 50.86 212.55L51.75 211.34L57.75 215.76L57.77 215.69L59.51 216.7C68.95 222.21 79.49 224.59 92.39 226.47L93.74 226.67L93 241.89L51.95 239.72L57.6 216.43L56.85 217.21C56.52 217.55 56.16 217.87 55.81 218.18C55.29 218.63 54.8 219.06 54.66 219.41L54.03 220.97C51.34 227.64 48.55 234.53 44.27 240.7C43.67 241.56 43.54 242.51 43.89 243.37C44.26 244.28 45.13 244.95 46.22 245.17C49.79 245.87 53.49 246.39 57.06 246.9C58.02 247.04 58.97 247.17 59.93 247.31C65.46 248.11 71.16 248.29 76.67 248.46C83.75 248.68 91.08 248.91 98.33 250.44C106.33 252.13 114.87 252.28 123.13 252.42C126 252.47 128.96 252.52 131.86 252.64C131.87 252.64 131.88 252.64 131.88 252.64C132.4 252.64 133.32 252 134.07 251.49C134.59 251.13 135.12 250.76 135.69 250.46C135.91 250.34 136.13 250.19 136.35 250.04C137.06 249.55 137.95 248.93 139.03 249.01C148.85 249.62 158.55 248.78 170.1 247.33C172.24 247.06 173.62 246.47 174.19 245.56C174.74 244.7 174.71 243.31 174.11 241.44C172.8 237.36 171.36 233.4 169.84 229.21C169.19 227.41 168.53 225.6 167.88 223.78L167.49 222.7L168.44 222.05C172.13 219.51 173.96 216.53 174.22 212.66L174.36 210.57L177.48 211.87C178.14 212.15 178.74 212.4 179.34 212.64ZM15.16 146.27C16.39 143.84 17.55 141.55 18.78 139.31C19.46 138.07 21.28 137.92 21.93 137.97C27.26 138.37 32.59 138.81 38 139.26L43.78 139.74V149.97L12.77 150.98L15.16 146.27ZM12.55 151.86L43.52 152.86V161.66H37.97C34.92 161.66 31.93 161.67 28.93 161.65C27.54 161.64 26.15 161.62 24.75 161.59C21.88 161.54 18.92 161.48 16.03 161.6C15.68 161.61 14.87 162.07 14.6 162.39C14.75 162.46 15.11 162.58 15.94 162.64C21.93 163.08 27.92 163.51 33.91 163.93L39.57 164.33C40.08 164.37 40.58 164.4 41.09 164.43L43.15 164.56V174.29H8.55001L12.55 151.86ZM8.73001 175.5L42.68 178.21V185.28H8.26001L8.73001 175.5ZM8.18 186.5L42.38 189.04L42.91 195.48L41.6 195.74C41.41 195.78 41.25 195.82 41.11 195.85C40.8 195.93 40.48 196 40.12 196C40.09 196 40.06 196 40.03 196C31.19 195.71 22.35 195.41 13.46 195.11L8.18 194.93V186.5ZM42.43 205.62C38.06 205.94 33.35 206.24 28.48 206.24C23.11 206.24 17.55 205.88 12.04 204.8C10.9 204.58 9.28001 204.12 8.44001 202.7C7.58001 201.25 7.96001 199.52 8.33001 198.35L8.68 197.22L43.09 199.59L44.07 205.5L42.43 205.62ZM44.13 136.69H20.49L22.66 134.2C28.16 127.89 34.62 124.42 42.98 123.27L44.77 123.03L44.13 136.69ZM106.19 10.67C111.74 8.02998 117.31 8.02998 122.74 10.68L128.58 13.53H100.2L106.19 10.67ZM90.42 20.82C90.94 20.38 91.46 19.94 91.97 19.5C93.38 18.29 94.84 17.04 96.34 15.86C97.2 15.18 98.36 14.98 99.17 15.02C101.2 15.13 103.22 15.23 105.25 15.33C113.55 15.75 122.13 16.18 130.55 16.92C132.23 17.07 133.48 18.36 134.81 19.72C135.34 20.27 135.9 20.84 136.46 21.31L139.65 23.96H90.8L89.47 21.63L90.42 20.82ZM82.89 29.89C85.66 25.09 86.37 24.72 91.29 25.43C107.73 27.8 121.32 28.01 134.05 26.08C134.74 25.98 135.3 25.89 135.81 25.74C135.96 25.7 136.18 25.58 136.45 25.43C136.64 25.33 136.84 25.22 137.07 25.11L138.23 24.54L141.91 29.88L139.76 30.38C138.54 30.66 137.32 31.01 136.15 31.35C133.5 32.12 130.99 32.84 128.35 32.85C127.98 32.85 127.61 32.85 127.23 32.85C117.58 32.85 107.79 32.62 98.32 32.4C94.53 32.31 90.73 32.22 86.94 32.15C86.36 32.14 85.78 32.14 85.16 32.15H81.58L82.89 29.89ZM79.48 33.71C79.65 33.62 79.83 33.5 80 33.39C80.61 32.99 81.39 32.49 82.33 32.55C92 33.1 99.89 33.7 107.16 34.45L117.79 35.54L107.27 37.42C103.14 38.16 98.92 38.53 94.54 38.53C89.95 38.53 85.2 38.12 80.22 37.31L79.39 37.17L78.23 34.34L79.48 33.71ZM128.39 245.1L127.21 245.36C127.15 245.37 127.09 245.39 127.01 245.42C126.7 245.51 126.24 245.65 125.71 245.65C125.67 245.65 125.63 245.65 125.59 245.65L123.12 245.55C116.91 245.3 110.5 245.04 104.19 244.65C102.79 244.56 100.84 242.97 100.77 241.45C100.63 238.41 100.65 235.41 100.66 232.23C100.67 231.18 100.67 230.11 100.67 229.02V227.44L128.39 228.81V245.1ZM135.92 245.73V229.23L160.69 226.17L167.19 241.13L135.92 245.73ZM165.73 213.03C154.36 217.99 141.88 220.51 128.61 220.51C127.89 220.51 127.17 220.5 126.44 220.49C112.96 220.21 98.86 219.45 84.53 218.21C74.22 217.32 64.42 214.51 55.39 209.87C53.4 208.85 52.74 207.5 53.11 205.22C53.74 201.3 54.21 197.42 54.7 193.32C54.89 191.76 55.08 190.18 55.27 188.6L55.54 186.45L55.76 186.56L55.01 181.64C54.98 181.45 54.95 181.26 54.91 181.07C54.83 180.6 54.74 180.12 54.71 179.6C54.47 175.65 54.15 171.63 53.85 167.74C53.16 158.96 52.45 149.87 52.51 140.92C52.69 110.15 56.47 85.36 64.39 62.9C67.5 54.1 71.39 46.05 75.97 38.99L76.63 37.97L77.77 38.41C101.29 47.53 122.72 46.88 143.27 36.43L144.71 35.7L145.33 37.2C145.67 38.03 146.03 38.87 146.39 39.72C147.21 41.64 148.05 43.63 148.83 45.66C154.03 59.27 158.05 74.48 161.5 93.55C167.32 125.75 169.8 155.06 169.06 183.17C169.04 183.98 169.05 184.78 169.05 185.44V187.36L167.89 187.63C127.16 197.05 87.77 189.99 57.72 182.56L56.49 186.96L57.45 187.46C68.48 193.27 80.77 195.01 91.42 196.18L95.26 196.6C108.21 198.03 121.6 199.52 134.79 200.54C146.14 201.42 155.06 200.15 162.86 196.54C163.62 196.19 164.35 195.79 165.2 195.32C165.62 195.09 166.07 194.84 166.54 194.59L168.53 193.53L168.73 195.78C168.83 196.87 168.92 197.95 169.02 199.02C169.23 201.45 169.44 203.83 169.69 206.21C170.16 210.63 169.79 211.26 165.73 213.03ZM214.15 192.42C213.07 196.98 212.24 198.11 208.73 198.11C207.93 198.11 206.99 198.05 205.87 197.96L205.22 197.91C199.88 197.49 194.41 197.3 189.12 197.11C186.96 197.03 184.79 196.96 182.63 196.87C181.94 196.84 181.26 196.85 180.48 196.86C180.07 196.86 179.64 196.87 179.18 196.87H177.58L178.25 186.86L212.24 189.33L212.8 188.85L213.73 189.41C214.11 189.64 214.37 190.03 214.46 190.47L215.2 192.48L214.15 192.42ZM215.61 185.37H178.41V176.25L215.61 178.25V185.37ZM215.29 170.38C215.36 170.82 215.42 171.26 215.51 171.86L215.89 174.53L178.56 176.21V164.72L214.82 167.68L215.05 168.98C215.1 169.27 215.2 169.82 215.29 170.38ZM175.98 119.7L192.15 126.25L191.25 129.56L176.43 128.78L175.98 119.7ZM182.57 131.52C185.99 131.87 189.33 132.21 192.67 132.57L193.2 132.63C194.64 132.78 196.12 132.94 197.58 133.35C198.67 133.66 199.66 134.15 200.61 134.62C200.99 134.81 201.38 135 201.77 135.18L203.01 135.74L201.94 138.91L177.62 140.74L184.16 141.24C188.24 141.56 192.23 141.87 196.21 142.15C196.71 142.19 197.21 142.23 197.72 142.27C199.44 142.42 201.07 142.57 202.61 142.35C205.77 141.9 207.73 143.29 208.57 146.61L209.02 148.4L179.05 149.74L211.39 152.61L214.87 164.69L178.3 163.75V149.77L177.93 149.79L177.48 140.73H177.49L176.68 130.91L182.57 131.52ZM177.13 203.5C177.12 202.96 177.12 202.49 177.15 202.02C177.18 201.55 177.25 201.08 177.33 200.53C177.36 200.29 177.4 200.03 177.44 199.75L177.64 198.27L206.53 201.86L206.32 204.8L205.64 205.2C202.1 207.27 198.55 207.95 195.03 207.95C191.7 207.95 188.4 207.35 185.15 206.76C182.97 206.36 180.71 205.95 178.51 205.74L177.15 205.61V204.25C177.13 203.97 177.13 203.73 177.13 203.5Z" fill="#16263C"/>
<path d="M73.9 94.52C73.33 110.1 84.25 124.19 99.31 127.3C103.54 128.17 108.09 128.24 112.49 128.3C114.47 128.33 116.52 128.35 118.54 128.46C118.56 128.46 118.69 128.44 119.07 128.28C119.95 127.9 120.83 127.55 121.72 127.19C123.79 126.36 125.75 125.58 127.58 124.54C138.58 118.34 144.15 110.01 144.62 99.06C145.01 89.93 141.4 80.71 134.71 73.78C127.96 66.79 118.79 62.8 109.5 62.8C109.42 62.8 109.34 62.8 109.26 62.8C101.37 62.86 94.06 65.44 87.55 70.47C78.71 77.3 74.25 85.16 73.9 94.52ZM95.52 75.35L99.18 72.94C106.12 68.37 118.24 69.32 124.12 74.9L127.19 77.81L99 75.62C99.38 75.68 99.78 75.75 100.18 75.85C109.69 78.03 119.41 79.35 126.82 80.27C130.6 80.73 132.76 82.46 134.06 86.03L135.2 89.16L132.1 87.94C127.57 86.16 122.98 86.22 118.12 86.3C116.85 86.32 115.57 86.34 114.3 86.32C110.94 86.28 107.54 86.1 104.26 85.92C102.86 85.84 101.45 85.77 100.05 85.7C96.34 85.53 92.06 85.57 87.99 87.06C101.27 88.32 114.99 89.63 128.5 90.73C129.61 90.82 130.83 90.53 132.24 90.2C132.98 90.03 133.74 89.85 134.56 89.71L135.78 89.5L136.22 90.66C139.3 98.87 136.81 108.01 130.33 113.42L133.98 113.16L126.86 116.56C126.05 116.95 125.24 117.34 124.44 117.73C122.56 118.64 120.61 119.59 118.66 120.46L118.13 120.69C116.36 121.46 115.24 122.01 114.69 123.37C114.25 124.46 112.82 124.97 111.83 124.97C111.75 124.97 111.67 124.97 111.6 124.96C101.85 124.08 93.98 120.08 87.56 112.75L85.58 110.49L88.58 110.27C95.26 109.77 101.7 110.91 107.92 112.01C114 113.08 119.75 114.1 125.75 113.73L125.82 113.44C125.94 112.91 126.02 112.18 125.7 111.71C125.38 111.23 124.68 111.02 124.15 110.93C123.02 110.73 121.9 110.52 120.77 110.3C117.19 109.62 113.49 108.92 109.87 108.72C103.96 108.4 97.91 108.45 92.06 108.51C90.54 108.52 89.02 108.54 87.49 108.54C86.57 108.54 84.17 108.56 83.25 105.77C82.76 104.28 82.21 102.79 81.63 101.21C81.37 100.5 81.1 99.77 80.82 99.01L80.02 96.8L82.36 97C83.97 97.14 85.53 97.27 87.06 97.39C90.38 97.66 93.51 97.92 96.66 98.25C99.25 98.52 101.88 98.84 104.42 99.15C109.33 99.75 114.41 100.37 119.4 100.64C122.1 100.79 124.84 100.23 127.75 99.65C128.68 99.46 129.61 99.28 130.54 99.11C131.04 99.02 131.36 98.78 131.44 98.64C131.47 98.59 131.43 98.48 131.39 98.41C131.11 97.85 130.13 97.2 129.76 97.19C120.4 96.97 110.89 96.84 101.68 96.71C97.41 96.65 93.15 96.59 88.88 96.52C87.38 96.5 85.93 96.38 84.39 96.26C83.69 96.2 82.97 96.15 82.24 96.1L80.73 96L80.85 94.49C81.03 92.19 81.53 90.03 82.39 87.96L82.22 87.88L82.55 87.58C83.58 85.22 85.07 82.97 87.07 80.72C89.53 77.95 92.44 75.49 96.91 75.48L95.52 75.35Z" fill="#16263C"/>
<path d="M104.02 146.45C100.33 147.43 97.1 150.21 95.39 153.89C93.8 157.3 93.72 161.02 95.16 164.1C97.38 168.84 101.55 171.45 107.55 171.85C113.54 171.96 118.53 169.88 121.28 166.19C123.6 163.07 124.15 159.04 122.81 154.83C121.15 149.59 117.35 145.95 111.52 144.01C109.08 143.2 107.9 143.45 106.85 145.02C106.25 145.92 105.16 146.18 104.36 146.37L104.02 146.45ZM110.98 149.68C113.09 150.66 116.05 152.35 117.43 155.8C118.42 158.28 118.36 160.72 117.26 162.66C116.17 164.59 114.13 165.88 111.51 166.3C110.76 166.42 110.04 166.43 109.65 166.43H109.44C109.33 166.43 109.23 166.43 109.12 166.43C103.87 166.43 101.48 164.47 100.39 162.81C99.33 161.18 98.5 158.27 100.6 153.69C101.77 151.14 102.93 149.3 104.77 148.62C106.59 147.96 108.57 148.56 110.98 149.68Z" fill="#16263C"/>
</svg>
