<svg viewBox="0 0 214 186" fill="none" xmlns="http://www.w3.org/2000/svg">
<path d="M130.11 85.88C134.04 96.79 136.43 107.82 136.75 119.24C137.19 134.87 134.24 149.63 124.52 162.33C108.17 183.7 81.7599 190.77 56.2099 180.18C28.5099 168.7 11.5399 147.48 3.61995 119.02C-2.33005 97.64 -0.950057 76.58 9.55994 56.66C16.0699 44.31 25.3799 34.88 39.0499 30.49C46.0299 28.25 52.9999 26.14 60.5099 26.45C72.8099 26.96 83.7099 31.31 93.7499 38.11C103.82 44.93 111.97 53.65 118.71 63.72C119.17 64.41 119.65 65.08 120.29 66C125.86 62.74 131.39 59.56 136.84 56.25C137.37 55.93 137.64 54.87 137.71 54.13C138.52 44.67 139.4 35.21 139.98 25.74C140.2 22.16 141.3 19.93 144.73 18.19C155.11 12.9 165.25 7.16 175.49 1.59C179.37 -0.520002 180.28 -0.0999973 181.07 4.15C181.13 4.47 181.29 4.78 181.39 5.09C184.48 14.28 184.13 23.88 184.57 33.36C184.67 35.52 183.72 37.73 183.31 39.69C189.76 42.46 196.24 45.42 202.87 48.01C205.3 48.96 208.05 49.14 210.68 49.53C213.32 49.92 214 51.11 213.35 53.61C212.86 55.5 212.82 57.53 212.75 59.5C212.69 61.06 211.98 61.93 210.77 62.92C203.55 68.8 196.37 74.74 189.38 80.89C187.74 82.33 186.44 82.96 184.35 82.4C173.75 79.55 163.1 76.86 152.52 73.91C149.87 73.17 147.91 73.46 145.68 75.11C140.66 78.82 135.43 82.22 130.11 85.88ZM115.65 68.57C104.94 52.63 91.87 39.89 73.46 33.89C52.18 26.95 32.3099 35.68 22.5899 55.85C18.7799 63.76 16.8999 72.19 16.5499 80.92C15.5999 104.59 22.9999 125.68 36.8499 144.61C45.8899 156.97 57.1499 166.66 71.8299 171.76C83.9599 175.97 96.0599 176.21 107.67 170.03C118.18 164.43 124.32 155.16 127.99 144.16C133.12 128.8 132.31 113.32 128.3 97.87C127.52 94.87 126.48 91.94 125.51 88.8C122.34 90.73 119.63 92.52 116.78 94.06C115.09 94.97 114.74 95.91 115.22 97.8C117.74 107.61 118.35 117.54 116.01 127.47C113 140.24 106.03 149.81 93.13 153.91C82.01 157.44 71.6599 154.66 62.1999 148.52C46.6699 138.44 37.0399 124.02 32.5099 106.21C29.2199 93.29 29.2799 80.44 35.0099 68.1C42.2699 52.48 57.7599 45.55 74.2599 50.45C86.6999 54.14 95.8999 62.22 103.47 72.42C104 73.13 104.53 73.84 105.08 74.57C108.7 72.51 112.08 70.6 115.65 68.57ZM109.88 98.19C106.42 100.06 103.23 101.68 100.17 103.52C99.5399 103.9 99.1599 105.06 99.0799 105.9C98.7899 109.04 99.05 112.27 98.41 115.33C95.92 127.28 85.5299 133.43 74.4199 129.76C57.9499 124.32 47.53 101.95 53.9799 85.86C57.8299 76.26 66.9299 71.97 76.7499 75.16C81.0299 76.55 84.6399 79.03 87.8699 82.13C88.3799 82.62 89.44 83.24 89.85 83.03C93.35 81.22 96.7599 79.23 100.29 77.25C94.9299 69.45 88.6999 63.16 80.6999 58.83C73.6399 55.01 66.1399 52.97 58.0999 54.94C46.7799 57.71 40.5599 65.65 37.5699 76.33C33.6299 90.38 35.9199 103.94 41.9499 116.91C48.1999 130.37 57.4299 141.24 71.3099 147.32C87.4799 154.4 103.24 147.46 109.27 130.87C113.15 120.14 112.71 109.32 109.88 98.19ZM204.72 54.52C201.37 53.16 198.31 52.08 195.39 50.69C189.75 47.99 184.2 45.16 177.72 45C175.67 44.95 174.99 43.42 175.24 41.51C175.76 37.58 176.54 33.59 176.33 29.67C175.95 22.63 174.92 15.63 174.14 8.38C169.96 10.67 165.59 13.02 161.28 15.48C160.82 15.74 160.53 16.57 160.43 17.17C159.9 20.62 159.36 24.06 159.03 27.53C158.85 29.43 158.33 30.93 156.21 30.88C154.07 30.84 153.46 29.29 153.59 27.4C153.77 24.78 154 22.17 154.24 19.19C151.44 20.72 148.86 22.05 146.38 23.55C145.89 23.85 145.56 24.73 145.51 25.38C144.81 33.43 144.17 41.48 143.53 49.54C143.47 50.31 143.52 51.1 143.52 52.18C145.16 51.19 146.42 50.07 147.87 49.68C148.9 49.4 150.75 49.76 151.21 50.48C151.69 51.24 151.13 52.84 150.68 53.94C150.45 54.51 149.5 54.8 148.86 55.18C136.08 62.67 123.32 70.2 110.5 77.63C102.8 82.09 95.0199 86.39 87.0399 90.89C88.0599 93.61 89.0299 96.22 90.0599 98.97C90.9599 98.5 91.6199 98.17 92.2599 97.81C111.38 86.81 130.5 75.81 149.62 64.81C151.21 63.9 152.78 62.96 154.38 62.07C155.9 61.22 157.14 61.67 157.98 63.1C158.79 64.47 158.4 65.68 157.14 66.58C156.23 67.23 155.26 67.79 153.81 68.71C162.45 71.12 170.51 73.37 178.58 75.58C179.08 75.72 179.86 75.67 180.22 75.37C182.77 73.18 185.25 70.9 188 68.42C187.26 68.26 186.95 68.19 186.65 68.12C182.57 67.3 178.49 66.5 174.42 65.65C172.81 65.31 171.88 64.26 172.22 62.59C172.58 60.84 173.78 60.12 175.58 60.51C176.15 60.64 176.72 60.76 177.29 60.87C182.2 61.78 187.1 62.72 192.02 63.54C192.82 63.67 193.92 63.51 194.52 63.02C197.95 60.3 201.28 57.41 204.72 54.52ZM84.74 85.99C82.13 84.21 80.13 82.55 77.88 81.38C68.85 76.71 60.1099 80.72 58.0299 90.67C55.8399 101.16 59.26 110.19 66.13 118.07C68.91 121.26 72.3 123.64 76.41 124.86C83.27 126.9 89.6 124.18 92.02 117.45C93.25 114.04 93.3299 110.17 93.6699 106.49C93.8699 104.29 92.7299 103.74 90.6799 104.75C88.6099 105.77 86.9799 105.18 86.0399 102.97C85.7899 102.38 85.4399 101.84 85.0599 101.14C82.8099 102.33 80.6899 103.46 78.5799 104.58C76.9199 105.47 75.2799 105.64 74.2999 103.73C73.3999 101.97 74.3399 100.76 75.9699 99.92C78.3199 98.71 80.64 97.42 82.91 96.2C83.04 92.78 78.71 88.99 84.74 85.99Z" fill="#16263C"/>
<path d="M68.57 5.28C68.03 10.16 67.52 15.05 66.94 19.93C66.74 21.62 65.8 22.81 63.96 22.59C62.01 22.35 61.4 20.94 61.61 19.13C62.15 14.33 62.71 9.53 63.25 4.73C63.47 2.81 64.08 1.15 66.41 1.47C68.61 1.76 68.79 3.47 68.57 5.28Z" fill="#16263C"/>
<path d="M73.6199 24.78C71.1299 24.73 69.8599 22.92 70.7799 21.09C72.7799 17.09 74.8699 13.12 77.2199 9.32001C77.6799 8.57001 79.7499 8.07001 80.5399 8.49001C81.3099 8.89001 82.0299 10.91 81.6599 11.7C79.7699 15.75 77.5699 19.66 75.3499 23.54C74.9599 24.21 73.9699 24.54 73.6199 24.78Z" fill="#16263C"/>
<path d="M49.79 8.04001C50.2 8.38001 51.21 8.87001 51.72 9.68001C53.68 12.75 55.48 15.93 57.34 19.06C58.23 20.57 58.15 22.03 56.63 22.97C55.13 23.89 53.73 23.42 52.82 21.89C50.86 18.62 48.87 15.37 47.03 12.03C45.99 10.13 47.15 8.14001 49.79 8.04001Z" fill="#16263C"/>
</svg>
